<svg width="16" height="16" viewBox="0 0 16 16" fill="none" xmlns="http://www.w3.org/2000/svg">
<path d="M13.5 12.3333L13.5 3.66667C13.5 3.02233 12.9777 2.5 12.3333 2.5C11.689 2.5 11.1667 3.02233 11.1667 3.66667L11.1667 12.3333C11.1667 12.9777 11.689 13.5 12.3333 13.5C12.9777 13.5 13.5 12.9777 13.5 12.3333Z" fill="white" stroke="black" stroke-linecap="round"/>
<path d="M4.83334 12.3333L4.83334 3.66667C4.83334 3.02233 4.311 2.5 3.66667 2.5C3.02234 2.5 2.5 3.02233 2.5 3.66667L2.5 12.3333C2.5 12.9777 3.02234 13.5 3.66667 13.5C4.311 13.5 4.83334 12.9777 4.83334 12.3333Z" fill="white" stroke="black" stroke-linecap="round"/>
<path d="M11.4703 10.4531L11.467 10.4392C11.4497 10.3667 11.4282 10.295 11.4029 10.2242C11.4029 10.2242 11.4029 10.2242 11.4029 10.2242L11.3811 10.1633L11.3756 10.1481L11.3743 10.1442L11.3739 10.1433L11.3739 10.1431L11.3738 10.143L11.3738 10.143L11.3738 10.143L11.3681 10.1271L11.3614 10.1116L9.34806 5.49615L9.29563 5.36592C9.27306 5.30497 9.24448 5.24542 9.2091 5.18841L9.20294 5.16833L9.19397 5.1466C9.15217 5.0454 9.10325 4.94863 9.04552 4.85904L9.0389 4.84875L9.03177 4.8388C8.9754 4.76005 8.92008 4.68759 8.8659 4.62255C8.76461 4.49841 8.63702 4.41626 8.50994 4.36246L8.49166 4.35473L8.47283 4.34846C8.31924 4.29738 8.15694 4.27777 7.99515 4.27777C7.83658 4.27777 7.6783 4.29819 7.52717 4.34846L7.50834 4.35473L7.49006 4.36246C7.36416 4.41576 7.23777 4.49688 7.13694 4.61909L7.06337 4.70473C7.06337 4.70473 7.06337 4.70473 7.06337 4.70473C7.01779 4.7578 6.97818 4.81478 6.94438 4.87493C6.89102 4.96004 6.84537 5.05135 6.80603 5.1466L6.79706 5.16833L6.7909 5.18841C6.75552 5.24542 6.72694 5.30498 6.70437 5.36592L6.65194 5.49615L4.63864 10.1116L4.63187 10.1271L4.62618 10.143L5.09693 10.3115L4.62618 10.143L4.62617 10.143L4.62617 10.143L4.62615 10.1431L4.62606 10.1433L4.62572 10.1442L4.62436 10.1481L4.61891 10.1633L4.5971 10.2242C4.57176 10.295 4.55034 10.3667 4.53304 10.4392L4.52972 10.4531L4.52721 10.4671L4.50782 10.5754L4.5 10.6191V10.6635V10.6637V10.6639V10.6641V10.6642V10.6644V10.6646V10.6648V10.6649V10.6651V10.6653V10.6655V10.6657V10.6658V10.666V10.6662V10.6664V10.6665V10.6667V10.6669V10.6671V10.6673V10.6674V10.6676V10.6678V10.668V10.6682V10.6683V10.6685V10.6687V10.6689V10.6691V10.6692V10.6694V10.6696V10.6698V10.67V10.6701V10.6703V10.6705V10.6707V10.6709V10.6711V10.6712V10.6714V10.6716V10.6718V10.672V10.6722V10.6723V10.6725V10.6727V10.6729V10.6731V10.6733V10.6734V10.6736V10.6738V10.674V10.6742V10.6744V10.6745V10.6747V10.6749V10.6751V10.6753V10.6755V10.6757V10.6758V10.676V10.6762V10.6764V10.6766V10.6768V10.677V10.6771V10.6773V10.6775V10.6777V10.6779V10.6781V10.6783V10.6785V10.6786V10.6788V10.679V10.6792V10.6794V10.6796V10.6798V10.68V10.6801V10.6803V10.6805V10.6807V10.6809V10.6811V10.6813V10.6815V10.6817V10.6818V10.682V10.6822V10.6824V10.6826V10.6828V10.683V10.6832V10.6834V10.6836V10.6838V10.6839V10.6841V10.6843V10.6845V10.6847V10.6849V10.6851V10.6853V10.6855V10.6857V10.6859V10.6861V10.6863V10.6865V10.6866V10.6868V10.687V10.6872V10.6874V10.6876V10.6878V10.688V10.6882V10.6884V10.6886V10.6888V10.689V10.6892V10.6894V10.6896V10.6898V10.69V10.6902V10.6903V10.6905V10.6907V10.6909V10.6911V10.6913V10.6915V10.6917V10.6919V10.6921V10.6923V10.6925V10.6927V10.6929V10.6931V10.6933V10.6935V10.6937V10.6939V10.6941V10.6943V10.6945V10.6947V10.6949V10.6951V10.6953V10.6955V10.6957V10.6959V10.6961V10.6963V10.6965V10.6967V10.6969V10.6971V10.6973V10.6975V10.6977V10.6979V10.6981V10.6983V10.6985V10.6987V10.6989V10.6991V10.6993V10.6995V10.6997V10.6999V10.7001V10.7003V10.7005V10.7007V10.7009V10.7011V10.7013V10.7015V10.7018V10.702V10.7022V10.7024V10.7026V10.7028V10.703V10.7032V10.7034V10.7036V10.7038V10.704V10.7042V10.7044V10.7046V10.7048V10.705V10.7052V10.7054V10.7057V10.7059V10.7061V10.7063V10.7065V10.7067V10.7069V10.7071V10.7073V10.7075V10.7077V10.7079V10.7081V10.7083V10.7086V10.7088V10.709V10.7092V10.7094V10.7096V10.7098V10.71V10.7102V10.7104V10.7107V10.7109V10.7111V10.7113V10.7115V10.7117V10.7119V10.7121V10.7123V10.7125V10.7128V10.713V10.7132V10.7134V10.7136V10.7138V10.714V10.7142V10.7145V10.7147V10.7149V10.7151V10.7153V10.7155V10.7157V10.7159V10.7162V10.7164V10.7166V10.7168V10.717V10.7172V10.7174V10.7177V10.7179V10.7181V10.7183V10.7185V10.7187V10.7189V10.7192V10.7194V10.7196V10.7198V10.72V10.7202V10.7205V10.7207V10.7209V10.7211V10.7213V10.7215V10.7218V10.722V10.7222V10.7224V10.7226V10.7228V10.7231V10.7233V10.7235V10.7237V10.7239V10.7241V10.7244V10.7246V10.7248V10.725V10.7252V10.7255V10.7257V10.7259V10.7261V10.7263V10.7266V10.7268V10.727V10.7272V10.7274V10.7277V10.7279V10.7281V10.7283V10.7285V10.7288V10.729V10.7292V10.7294V10.7297V10.7299V10.7301V10.7303V10.7305V10.7308V10.731V10.7312V10.7314V10.7317V10.7319V10.7321V10.7323V10.7326V10.7328V10.733V10.7332V10.7335V10.7337V10.7339V10.7341V10.7344V10.7346V10.7348V10.735V10.7353V10.7355V10.7357V10.7359V10.7362V10.7364V10.7366V10.7368V10.7371V10.7373V10.7375V10.7377V10.738V10.7382V10.7384V10.7386V10.7389V10.7391V10.7393V10.7396V10.7398V10.74V10.7402V10.7405V10.7407V10.7409V10.7412V10.7414V10.7416V10.7418V10.7421V10.7423V10.7425V10.7428V10.743V10.7432V10.7435V10.7437V10.7439V10.7442V10.7444V10.7446V10.7448V10.7451V10.7453V10.7455V10.7458V10.746V10.7462V10.7465V10.7467V10.7469V10.7472V10.7474V10.7476V10.7479V10.7481V10.7483V10.7486V10.7488V10.749V10.7493V10.7495V10.7497V10.75V10.7502V10.7504V10.7507V10.7509V10.7511V10.7514V10.7516V10.7518V10.7521V10.7523V10.7526V10.7528V10.753V10.7533V10.7535V10.7537V10.754V10.7542V10.7544V10.7547V10.7549V10.7552V10.7554V10.7556V10.7559V10.7561V10.7563V10.7566V10.7568V10.7571V10.7573V10.7575V10.7578V10.758V10.7583V10.7585V10.7587V10.759V10.7592V10.7594V10.7597V10.7599V10.7602V10.7604V10.7606V10.7609V10.7611V10.7614V10.7616V10.7619V10.7621V10.7623V10.7626V10.7628V10.7631V10.7633V10.7635V10.7638V10.764V10.7643V10.7645V10.7648V10.765V10.7652V10.7655V10.7657V10.766V10.7662V10.7665V10.7667V10.7669V10.7672V10.7674V10.7677V10.7679V10.7682V10.7684V10.7687V10.7689V10.7692V10.7694V10.7696V10.7699V10.7701V10.7704V10.7706V10.7709V10.7711V10.7714V10.7716V10.7719C4.5 10.9511 4.55679 11.1166 4.65757 11.2565C4.70171 11.3219 4.7527 11.3783 4.80463 11.4266L4.82469 11.4453L4.84667 11.4617C4.9126 11.5108 4.98261 11.5487 5.05225 11.5784C5.29926 11.7019 5.56666 11.7464 5.84139 11.7098L5.8731 11.7056L5.90401 11.6974C6.00569 11.6703 6.10283 11.6309 6.19385 11.5788H6.24362L6.38761 11.4447C6.41027 11.4236 6.4296 11.402 6.44596 11.3813L6.45546 11.3725L6.48698 11.3431L6.48783 11.3415C6.52019 11.3097 6.55229 11.2754 6.58167 11.2389L6.59825 11.2183L6.61257 11.1961C6.6376 11.1573 6.66068 11.1165 6.6812 11.0739C6.69436 11.0527 6.70705 11.0313 6.71901 11.0098L6.76766 10.9343L6.77844 10.9176L6.78786 10.9C6.80196 10.8738 6.81676 10.8441 6.83037 10.8118L6.85571 10.7646C6.88441 10.7112 6.90765 10.651 6.92128 10.5853L6.98576 10.4452C7.32406 10.4486 7.66052 10.4504 7.99515 10.4504V10.4504L8.0019 10.4503C8.33884 10.4458 8.67578 10.443 9.01272 10.4419L9.05934 10.5432C9.07441 10.6018 9.09472 10.6568 9.11687 10.7071C9.13241 10.753 9.15161 10.7963 9.17337 10.8369L9.18859 10.8652L9.20665 10.8904C9.20714 10.8912 9.20902 10.8942 9.21214 10.9L9.22156 10.9176L9.23234 10.9343C9.23805 10.9432 9.24072 10.9488 9.24171 10.9511L9.26875 11.0141L9.29782 11.0502L9.30666 11.0707L9.32928 11.1058L9.38743 11.1961L9.40175 11.2183L9.41833 11.2389C9.44771 11.2754 9.47981 11.3097 9.51217 11.3415L9.51302 11.3431L9.54453 11.3725L9.55404 11.3813C9.55404 11.3813 9.55404 11.3813 9.55404 11.3813C9.5704 11.402 9.58972 11.4236 9.61238 11.4447L9.75637 11.5788H9.80615C9.89717 11.6309 9.99431 11.6703 10.096 11.6974L10.1269 11.7056L10.1586 11.7098C10.4333 11.7464 10.7007 11.7019 10.9477 11.5784C11.0174 11.5487 11.0874 11.5108 11.1533 11.4617L11.1753 11.4453L11.1954 11.4266C11.2473 11.3783 11.2983 11.3219 11.3424 11.2565C11.4432 11.1166 11.5 10.9511 11.5 10.7719C11.5 10.7228 11.4973 10.6695 11.4892 10.6144C11.487 10.5649 11.4815 10.5158 11.4728 10.4671L11.4703 10.4531ZM7.99608 8.07024C8.0239 8.12765 8.05141 8.18448 8.07861 8.24073H7.91799C7.94403 8.18443 7.97006 8.1276 7.99608 8.07024Z" fill="white" stroke="black"/>
</svg>
