<svg width="64" height="64" viewBox="0 0 64 64" fill="none" xmlns="http://www.w3.org/2000/svg">
<path d="M52.5 49.3333L52.5 14.6667C52.5 12.9178 51.0822 11.5 49.3333 11.5C47.5844 11.5 46.1667 12.9178 46.1667 14.6667L46.1667 49.3333C46.1667 51.0822 47.5844 52.5 49.3333 52.5C51.0822 52.5 52.5 51.0822 52.5 49.3333Z" fill="black" stroke="white" stroke-linecap="round"/>
<path d="M17.8333 49.3333L17.8333 14.6667C17.8333 12.9178 16.4156 11.5 14.6667 11.5C12.9178 11.5 11.5 12.9178 11.5 14.6667L11.5 49.3333C11.5 51.0822 12.9178 52.5 14.6667 52.5C16.4156 52.5 17.8333 51.0822 17.8333 49.3333Z" fill="black" stroke="white" stroke-linecap="round"/>
<path d="M44.4146 42.1328L44.4121 42.1187L44.4088 42.1048C44.3527 41.8698 44.2828 41.6357 44.1994 41.4024L44.1121 41.1587L44.0903 41.0977L44.0849 41.0825L44.0835 41.0787L44.0832 41.0777L44.0831 41.0775L44.083 41.0774L44.083 41.0774L44.0773 41.0615L44.0706 41.046L36.0088 22.5647L35.7823 22.0022C35.7192 21.828 35.6393 21.6642 35.5415 21.5124C35.4937 21.4382 35.4465 21.3376 35.4053 21.2032L35.3984 21.1807L35.3894 21.159C35.2507 20.8231 35.0952 20.5187 34.9211 20.2486L34.9145 20.2383L34.9074 20.2283C34.6961 19.9332 34.4955 19.6712 34.3056 19.4437C34.0878 19.1748 33.7952 18.9752 33.455 18.8312L33.4367 18.8235L33.4179 18.8172C32.9929 18.6759 32.5107 18.6111 31.9806 18.6111C31.4731 18.6111 31.0046 18.6767 30.5821 18.8172L30.5633 18.8235L30.545 18.8312C30.2061 18.9747 29.9143 19.1733 29.6968 19.4408L29.3913 19.7964C29.2679 19.94 29.1603 20.0965 29.0683 20.265C28.8985 20.531 28.7465 20.8299 28.6106 21.159L28.6016 21.1807L28.5947 21.2032C28.5535 21.3376 28.5063 21.4382 28.4585 21.5124C28.3607 21.6642 28.2808 21.828 28.2177 22.0022L27.9912 22.5647L19.9294 41.046L19.9227 41.0615L19.917 41.0774L20.3877 41.2459L19.917 41.0774L19.917 41.0774L19.9169 41.0775L19.9169 41.0777L19.9165 41.0787L19.9151 41.0825L19.9097 41.0977L19.8879 41.1587L19.8007 41.4024C19.7172 41.6357 19.6473 41.8698 19.5912 42.1048L19.5879 42.1187L19.5854 42.1328L19.5078 42.5661L19.5 42.6098V42.6542V42.6549V42.6556V42.6563V42.657V42.6577V42.6584V42.6591V42.6598V42.6605V42.6612V42.6619V42.6627V42.6634V42.6641V42.6648V42.6655V42.6662V42.6669V42.6676V42.6684V42.6691V42.6698V42.6705V42.6712V42.672V42.6727V42.6734V42.6741V42.6748V42.6756V42.6763V42.677V42.6777V42.6784V42.6792V42.6799V42.6806V42.6813V42.6821V42.6828V42.6835V42.6843V42.685V42.6857V42.6864V42.6872V42.6879V42.6886V42.6894V42.6901V42.6908V42.6916V42.6923V42.693V42.6938V42.6945V42.6952V42.696V42.6967V42.6975V42.6982V42.6989V42.6997V42.7004V42.7012V42.7019V42.7026V42.7034V42.7041V42.7049V42.7056V42.7064V42.7071V42.7078V42.7086V42.7093V42.7101V42.7108V42.7116V42.7123V42.7131V42.7138V42.7146V42.7153V42.7161V42.7168V42.7176V42.7183V42.7191V42.7199V42.7206V42.7214V42.7221V42.7229V42.7236V42.7244V42.7252V42.7259V42.7267V42.7274V42.7282V42.729V42.7297V42.7305V42.7312V42.732V42.7328V42.7335V42.7343V42.7351V42.7358V42.7366V42.7374V42.7381V42.7389V42.7397V42.7404V42.7412V42.742V42.7427V42.7435V42.7443V42.7451V42.7458V42.7466V42.7474V42.7482V42.7489V42.7497V42.7505V42.7513V42.752V42.7528V42.7536V42.7544V42.7552V42.7559V42.7567V42.7575V42.7583V42.7591V42.7598V42.7606V42.7614V42.7622V42.763V42.7638V42.7646V42.7653V42.7661V42.7669V42.7677V42.7685V42.7693V42.7701V42.7709V42.7717V42.7725V42.7732V42.774V42.7748V42.7756V42.7764V42.7772V42.778V42.7788V42.7796V42.7804V42.7812V42.782V42.7828V42.7836V42.7844V42.7852V42.786V42.7868V42.7876V42.7884V42.7892V42.79V42.7908V42.7916V42.7924V42.7932V42.7941V42.7949V42.7957V42.7965V42.7973V42.7981V42.7989V42.7997V42.8005V42.8013V42.8021V42.803V42.8038V42.8046V42.8054V42.8062V42.807V42.8079V42.8087V42.8095V42.8103V42.8111V42.8119V42.8128V42.8136V42.8144V42.8152V42.816V42.8169V42.8177V42.8185V42.8193V42.8202V42.821V42.8218V42.8226V42.8235V42.8243V42.8251V42.826V42.8268V42.8276V42.8284V42.8293V42.8301V42.8309V42.8318V42.8326V42.8334V42.8343V42.8351V42.8359V42.8368V42.8376V42.8384V42.8393V42.8401V42.841V42.8418V42.8426V42.8435V42.8443V42.8452V42.846V42.8468V42.8477V42.8485V42.8494V42.8502V42.8511V42.8519V42.8527V42.8536V42.8544V42.8553V42.8561V42.857V42.8578V42.8587V42.8595V42.8604V42.8612V42.8621V42.8629V42.8638V42.8647V42.8655V42.8664V42.8672V42.8681V42.8689V42.8698V42.8706V42.8715V42.8724V42.8732V42.8741V42.8749V42.8758V42.8767V42.8775V42.8784V42.8792V42.8801V42.881V42.8818V42.8827V42.8836V42.8844V42.8853V42.8862V42.887V42.8879V42.8888V42.8897V42.8905V42.8914V42.8923V42.8931V42.894V42.8949V42.8958V42.8966V42.8975V42.8984V42.8993V42.9001V42.901V42.9019V42.9028V42.9036V42.9045V42.9054V42.9063V42.9072V42.908V42.9089V42.9098V42.9107V42.9116V42.9125V42.9133V42.9142V42.9151V42.916V42.9169V42.9178V42.9187V42.9195V42.9204V42.9213V42.9222V42.9231V42.924V42.9249V42.9258V42.9267V42.9276V42.9285V42.9294V42.9303V42.9311V42.932V42.9329V42.9338V42.9347V42.9356V42.9365V42.9374V42.9383V42.9392V42.9401V42.941V42.9419V42.9428V42.9437V42.9447V42.9456V42.9465V42.9474V42.9483V42.9492V42.9501V42.951V42.9519V42.9528V42.9537V42.9546V42.9555V42.9564V42.9574V42.9583V42.9592V42.9601V42.961V42.9619V42.9628V42.9638V42.9647V42.9656V42.9665V42.9674V42.9683V42.9693V42.9702V42.9711V42.972V42.9729V42.9739V42.9748V42.9757V42.9766V42.9776V42.9785V42.9794V42.9803V42.9813V42.9822V42.9831V42.984V42.985V42.9859V42.9868V42.9878V42.9887V42.9896V42.9905V42.9915V42.9924V42.9933V42.9943V42.9952V42.9961V42.9971V42.998V42.999V42.9999V43.0008V43.0018V43.0027V43.0036V43.0046V43.0055V43.0065V43.0074V43.0083V43.0093V43.0102V43.0112V43.0121V43.0131V43.014V43.015V43.0159V43.0169V43.0178V43.0187V43.0197V43.0206V43.0216V43.0225V43.0235V43.0244V43.0254V43.0264V43.0273V43.0283V43.0292V43.0302V43.0311V43.0321V43.033V43.034V43.0349V43.0359V43.0369V43.0378V43.0388V43.0397V43.0407V43.0417V43.0426V43.0436V43.0445V43.0455V43.0465V43.0474V43.0484V43.0494V43.0503V43.0513V43.0523V43.0532V43.0542V43.0552V43.0561V43.0571V43.0581V43.0591V43.06V43.061V43.062V43.0629V43.0639V43.0649V43.0659V43.0668V43.0678V43.0688V43.0698V43.0708V43.0717V43.0727V43.0737V43.0747V43.0757V43.0766V43.0776V43.0786V43.0796V43.0806V43.0815V43.0825V43.0835V43.0845V43.0855V43.0865V43.0875C19.5 43.4836 19.6249 43.8479 19.861 44.1679C19.9639 44.3244 20.0928 44.471 20.2408 44.6088L20.2609 44.6275L20.2829 44.6439C20.447 44.7662 20.6338 44.8672 20.8378 44.9505C21.5691 45.3265 22.3504 45.4612 23.1677 45.3524L23.1994 45.3482L23.2303 45.34C23.6358 45.2321 24.0052 45.0576 24.334 44.8152H24.3842L24.5282 44.6811C24.5814 44.6315 24.6239 44.5766 24.6579 44.5241L24.6833 44.5005L24.7416 44.4461L24.7438 44.4441L24.7996 44.3922C24.9395 44.2618 25.0611 44.1358 25.1584 44.0149L25.175 43.9943L25.1893 43.9721C25.2724 43.8431 25.3446 43.7115 25.4049 43.5771C25.4741 43.4684 25.5353 43.3658 25.5874 43.2699L25.8097 42.9249L25.8204 42.9082L25.8299 42.8907C25.8816 42.7943 25.9269 42.6995 25.9622 42.608L26.1013 42.349C26.1738 42.2139 26.222 42.0659 26.2348 41.9084C26.2494 41.8654 26.2691 41.8197 26.2951 41.7713L26.3024 41.7577L26.3088 41.7438L26.9872 40.2696C28.663 40.2909 30.3275 40.3015 31.9806 40.3015V40.3016L31.9874 40.3015C33.6619 40.2789 35.3364 40.2669 37.0109 40.2656L37.6642 41.6853C37.7028 41.8816 37.7746 42.0838 37.8695 42.2886C37.9055 42.4089 37.9546 42.5254 38.015 42.6379L38.0303 42.6663L38.049 42.6924C38.0858 42.7438 38.1264 42.8091 38.1701 42.8907L38.1796 42.9082L38.1903 42.9249C38.2542 43.0241 38.3053 43.12 38.3451 43.2126L38.3721 43.2755L38.4151 43.3288C38.4625 43.3877 38.5041 43.4565 38.539 43.5375L38.5554 43.5759L38.5781 43.611L38.8107 43.9721L38.825 43.9943L38.8416 44.0149C38.9389 44.1358 39.0605 44.2618 39.2004 44.3922L39.2562 44.4441L39.2584 44.4461L39.3168 44.5005L39.3421 44.5241C39.3761 44.5766 39.4186 44.6315 39.4718 44.681L39.6158 44.8152H39.666C39.9948 45.0576 40.3642 45.2321 40.7697 45.34L40.8006 45.3482L40.8323 45.3524C41.6496 45.4612 42.4309 45.3265 43.1622 44.9505C43.3662 44.8672 43.553 44.7662 43.7171 44.6439L43.7391 44.6275L43.7592 44.6088C43.9072 44.471 44.0361 44.3244 44.139 44.1679C44.3751 43.8479 44.5 43.4836 44.5 43.0875C44.5 42.9162 44.4884 42.7532 44.4608 42.6029C44.458 42.4456 44.4426 42.2888 44.4146 42.1328ZM24.783 44.3711C24.7826 44.3718 24.7823 44.3725 24.7819 44.3732L24.783 44.3711ZM39.2181 44.3732C39.2177 44.3725 39.2174 44.3718 39.217 44.3711L39.2181 44.3732ZM33.2307 31.4129L33.2336 31.4194L33.2367 31.4258C33.597 32.1688 33.9445 32.888 34.2792 33.5832L34.6656 34.4629H29.3344L29.7209 33.5832C30.0566 32.8855 30.3922 32.1642 30.7276 31.4194C31.0874 30.6775 31.4601 29.9236 31.8456 29.1575L31.8457 29.1576L31.8503 29.1481L32 28.8344L32.1497 29.1481L32.1496 29.1481L32.1544 29.1575C32.539 29.9218 32.8978 30.6736 33.2307 31.4129Z" fill="black" stroke="white"/>
</svg>
